<?xml version="1.0" standalone="no"?>
<!DOCTYPE svg PUBLIC "-//W3C//DTD SVG 20010904//EN"
 "http://www.w3.org/TR/2001/REC-SVG-20010904/DTD/svg10.dtd">
<svg version="1.0" xmlns="http://www.w3.org/2000/svg"
 width="640.000000pt" height="640.000000pt" viewBox="0 0 640.000000 640.000000"
 preserveAspectRatio="xMidYMid meet">
<metadata>
Created by potrace 1.14, written by Peter Selinger 2001-2017
</metadata>
<g transform="translate(0.000000,640.000000) scale(0.100000,-0.100000)"
fill="#000000" stroke="none">
<path d="M2903 5624 c-620 -75 -1205 -399 -1602 -887 -227 -279 -407 -653
-485 -1008 -74 -335 -74 -722 0 -1058 58 -264 194 -588 340 -809 l68 -103 302
302 302 301 -78 102 c-305 401 -508 810 -581 1173 -103 515 34 996 372 1306
278 254 351 302 459 302 151 0 272 -113 485 -450 49 -77 108 -180 132 -228
112 -224 108 -417 -10 -553 -44 -50 -215 -199 -278 -242 -107 -72 -169 -175
-169 -280 0 -112 68 -283 181 -456 l63 -97 1118 1118 1117 1117 -47 34 c-227
162 -566 310 -863 376 -245 55 -575 71 -826 40z"/>
<path d="M4045 3510 c-1030 -1030 -1127 -1130 -1114 -1146 26 -33 173 -136
241 -170 195 -98 322 -81 462 61 114 115 250 229 313 263 150 80 322 54 516
-77 91 -61 333 -265 425 -359 120 -121 180 -244 169 -344 -9 -76 -52 -142
-146 -227 -47 -42 -116 -105 -155 -139 -177 -161 -411 -275 -650 -317 -115
-20 -346 -20 -462 0 -416 72 -794 280 -1241 682 l-69 62 -288 -288 -287 -287
103 -68 c140 -92 394 -215 558 -270 873 -290 1817 -76 2483 563 328 316 582
770 681 1222 74 335 74 723 0 1058 -64 292 -214 636 -376 863 l-34 47 -1129
-1129z"/>
</g>
</svg>
